<svg xmlns="http://www.w3.org/2000/svg" width="24" height="24" fill="none" viewBox="0 0 24 24"><desc>Chroma Streamline Icon: https://streamlinehq.com</desc><path fill="#ffde2d" d="M15.917 19.52c4.326 0 7.833-3.367 7.833-7.52s-3.507-7.52-7.833-7.52S8.083 7.847 8.083 12s3.507 7.52 7.834 7.52"/><path fill="#327eff" d="M8.083 19.52c4.327 0 7.834-3.367 7.834-7.52S12.41 4.48 8.083 4.48C3.757 4.48.25 7.847.25 12s3.507 7.52 7.833 7.52"/><path fill="#ff6446" d="M15.917 12c0 4.153-3.507 7.52-7.834 7.52V12zm-7.834 0c0-4.153 3.507-7.52 7.834-7.52V12z"/></svg>