<svg xmlns="http://www.w3.org/2000/svg" width="252" height="264" fill="none" viewBox="0 0 252 264"><g clip-path="url(#a)"><mask id="b" width="254" height="258" x="-1" y="6" maskUnits="userSpaceOnUse" style="mask-type:luminance"><path fill="#fff" d="M252.391 6.068H-.437v257.864H252.39z"/></mask><g mask="url(#b)"><path fill="#0b23a9" d="M58.75 6.069C26.114 6.069-.437 32.632-.437 65.283c0 32.648 26.55 59.213 59.187 59.213s59.188-26.565 59.188-59.213c0-32.651-26.551-59.214-59.188-59.214m66.969 185.42c-21.32 0-41.465-5.401-59.149-14.883v26.865c0 32.6 26.02 59.65 58.605 59.965 32.903.318 59.772-26.367 59.772-59.21v-27.645c-17.7 9.506-37.878 14.908-59.228 14.908"/><path fill="url(#c)" d="M133.466 65.29c-.061 41.191-33.486 74.644-74.808 74.745-15.94.041-30.897-4.923-43.103-13.59 21.634 38.689 62.915 65.069 110.118 64.978 68.57.054 125.15-55.797 126.293-124.298l-.162-.146c.067-1.707-.016-.309.067-1.707.033-32.674-26.559-59.341-59.056-59.227-32.807.13-59.316 26.57-59.349 59.245"/></g></g><defs><linearGradient id="c" x1="71.155" x2="217.708" y1="189.328" y2="27.053" gradientUnits="userSpaceOnUse"><stop stop-color="#09dbf0"/><stop offset="1" stop-color="#0b23a9"/></linearGradient><clipPath id="a"><path fill="#fff" d="M0 0h252v264H0z"/></clipPath></defs></svg>